<svg xmlns="http://www.w3.org/2000/svg" width="126.72" height="45" viewBox="0 0 126.72 45">
  <g id="logo" transform="translate(-65.544 -21.265)">
    <g id="g1705" transform="translate(65.544 21.265)">
      <g id="g1679" transform="translate(0.082 36.462)">
        <path id="path1631" d="M28.583,49.448H25.067v-.237c.636-.057.941-.085.941-.715v-4.8h-.022L23.34,49.448h-.286l-2.646-5.611h-.019v4.43c0,.666.191.895,1.069.944v.237H18.981v-.237c.827-.068.963-.21.963-.761V43.921c0-.5-.191-.63-.941-.676v-.237h2.679l2.117,4.5,2.117-4.5h2.668v.237c-.592.038-.93.057-.93.876v4.212c0,.761.232.791.93.876Z" transform="translate(-18.981 -42.863)"/>
        <path id="path1633" d="M31.172,49.452H28.641v-.229c.382-.085.562-.115.562-.573v-2.8c0-.428-.158-.5-.562-.562v-.229h2.032v3.62c0,.295.085.5.5.543v.232Zm-1.238-6.585a.779.779,0,0,1,.816.742.826.826,0,0,1-1.642,0A.782.782,0,0,1,29.934,42.867Z" transform="translate(-18.682 -42.867)"/>
        <path id="path1635" d="M36.981,49.39H34.493V49.16a.469.469,0,0,0,.5-.543v-2.3c0-.267-.011-.791-.581-.791a1.2,1.2,0,0,0-.878.554V48.62c0,.218.033.5.518.543v.229H31.5v-.229c.382-.065.562-.1.562-.573v-2.8c0-.428-.136-.5-.562-.562V45H33.52v.687h.022a1.75,1.75,0,0,1,1.5-.8,1.3,1.3,0,0,1,1.418,1.345v2.392c0,.229,0,.524.518.543Z" transform="translate(-18.593 -42.805)"/>
        <path id="path1637" d="M39.633,49.452H37.1v-.229c.382-.085.562-.115.562-.573v-2.8c0-.428-.158-.5-.562-.562v-.229h2.032v3.62c0,.295.085.5.5.543v.232ZM38.4,42.867a.779.779,0,0,1,.816.742.826.826,0,0,1-1.642,0A.784.784,0,0,1,38.4,42.867Z" transform="translate(-18.419 -42.867)"/>
        <path id="path1639" d="M43.071,46.283A1.406,1.406,0,0,0,41.759,45.2a.619.619,0,0,0-.676.543c0,.971,2.477.753,2.477,2.316A1.479,1.479,0,0,1,41.9,49.523a6.846,6.846,0,0,1-1.345-.276c-.117,0-.18.076-.286.267H40V47.944h.3A1.487,1.487,0,0,0,41.791,49.2a.668.668,0,0,0,.753-.63c0-.876-2.52-.818-2.52-2.286a1.5,1.5,0,0,1,1.683-1.4,7.862,7.862,0,0,1,1.132.21A.252.252,0,0,0,43.1,44.9h.232v1.383h-.265Z" transform="translate(-18.329 -42.805)"/>
        <path id="path1641" d="M46.7,45.46h-1v2.867c0,.153-.011.543.412.543.308,0,.488-.295.6-.5l.265.1a1.691,1.691,0,0,1-1.558,1.067c-1.143,0-1.187-.8-1.2-1V45.455h-.551V45.2a8.636,8.636,0,0,0,1.757-1.773H45.7v1.609h1v.426Z" transform="translate(-18.215 -42.85)"/>
        <path id="path1643" d="M50.167,49.39H47.352v-.229c.338-.057.573-.1.573-.573v-2.8c0-.477-.254-.524-.573-.562V45h2v.753h.022a1.871,1.871,0,0,1,1.386-.867.778.778,0,0,1,.878.745.622.622,0,0,1-.676.638c-.614,0-.6-.562-.941-.562-.158,0-.625.21-.625.906v1.8c0,.581.128.723.772.753v.229Z" transform="translate(-18.102 -42.805)"/>
        <path id="path1645" d="M56.845,45.221c-.232.027-.412.046-.614.524l-1.577,3.783c-.529,1.268-.753,1.811-1.746,1.811-.687,0-.974-.439-.974-.742a.618.618,0,0,1,.7-.619c.477,0,.592.314.592.486a1.132,1.132,0,0,1-.033.172.18.18,0,0,0,.18.161c.36,0,.625-.573.7-.78l.191-.5L52.99,46.7c-.232-.516-.551-1.1-.614-1.219-.128-.218-.18-.218-.445-.256V45h2.646v.229c-.276.019-.562.027-.562.256a2.373,2.373,0,0,0,.213.554L54.99,47.8l.72-1.83a1.191,1.191,0,0,0,.117-.428c0-.306-.316-.306-.581-.314V45h1.6Z" transform="translate(-17.96 -42.801)"/>
        <path id="path1647" d="M60.974,47.207c0-1.086.052-2.029.837-2.029.646,0,.827.562.827,2.029,0,1.211-.085,2.019-.816,2.019C60.974,49.226,60.974,48.236,60.974,47.207Zm-1.558,0a2.388,2.388,0,1,0,2.392-2.324A2.288,2.288,0,0,0,59.417,47.207Z" transform="translate(-17.728 -42.805)"/>
        <path id="path1649" d="M64.182,49.223c.36-.038.6-.065.6-.573V45.478h-.6v-.42h.6c0-.925.011-2.19,1.926-2.19.646,0,1.44.295,1.44.952a.6.6,0,0,1-.668.592.574.574,0,0,1-.625-.516c0-.256.232-.409.232-.554s-.191-.18-.316-.18c-.507,0-.518.477-.518.734v1.162h.922v.42h-.922V48.47c0,.657.18.734.867.753v.229H64.179v-.229Z" transform="translate(-17.58 -42.867)"/>
        <path id="path1651" d="M73.763,45.46h-1v2.867c0,.153-.011.543.412.543.308,0,.488-.295.6-.5l.265.1a1.694,1.694,0,0,1-1.558,1.067c-1.143,0-1.187-.8-1.2-1V45.455h-.551V45.2A8.637,8.637,0,0,0,72.5,43.426h.265v1.609h1v.426Z" transform="translate(-17.377 -42.85)"/>
        <path id="path1653" d="M79.555,49.448H77.067v-.229a.469.469,0,0,0,.5-.543v-2.3c0-.267-.011-.791-.581-.791a1.2,1.2,0,0,0-.878.554v2.545c0,.218.033.5.518.543v.229H74.072v-.229c.382-.065.562-.1.562-.573V43.79c0-.447-.147-.477-.562-.554v-.229H76.1v2.679a1.982,1.982,0,0,1,1.514-.745,1.3,1.3,0,0,1,1.418,1.345v2.362c0,.161,0,.573.518.573Z" transform="translate(-17.273 -42.863)"/>
        <path id="path1655" d="M80.884,46.7c0-1.315.36-1.525.753-1.525a.559.559,0,0,1,.573.447,5.261,5.261,0,0,1,.1,1.077ZM83.4,48.2a1.609,1.609,0,0,1-1.195.638c-1.007,0-1.238-.971-1.271-1.781H83.6a2,2,0,0,0-2.013-2.171,2.157,2.157,0,0,0-2.182,2.3,2.116,2.116,0,0,0,2.15,2.335,2.372,2.372,0,0,0,2.095-1.192Z" transform="translate(-17.108 -42.805)"/>
        <path id="path1657" d="M86.753,43h6.108V44.92H92.6c-.243-1.353-1-1.59-2.425-1.59-.581,0-.772.038-.772.447v2.21c1.017.008,1.558-.237,1.716-1.418h.276v3.222h-.276c-.128-1.192-.668-1.476-1.716-1.476v2.3c0,.42.2.535.889.535a2.734,2.734,0,0,0,2.785-1.686h.3l-.423,1.983H86.753v-.237c.6-.057.93-.085.93-.676V43.921c0-.63-.445-.649-.93-.676Z" transform="translate(-16.88 -42.863)"/>
        <path id="path1659" d="M98.676,49.39H96.188V49.16a.469.469,0,0,0,.5-.543v-2.3c0-.267-.011-.791-.581-.791a1.2,1.2,0,0,0-.878.554V48.62c0,.218.033.5.518.543v.229H93.193v-.229c.382-.065.562-.1.562-.573v-2.8c0-.428-.136-.5-.562-.562V45h2.021v.687h.022a1.75,1.75,0,0,1,1.5-.8,1.3,1.3,0,0,1,1.418,1.345v2.392c0,.229,0,.524.518.543Z" transform="translate(-16.681 -42.805)"/>
        <path id="path1661" d="M103.146,45.221c-.254.027-.4.046-.614.524l-1.694,3.773h-.275L99.292,46.7c-.232-.516-.551-1.1-.614-1.219-.128-.218-.18-.218-.445-.256v-.229h2.646v.229c-.349.027-.562.038-.562.256,0,.038,0,.068.1.286l.837,1.934.761-1.735a1.081,1.081,0,0,0,.117-.428c0-.306-.316-.306-.581-.314v-.229h1.6Z" transform="translate(-16.524 -42.801)"/>
        <path id="path1663" d="M106,49.452h-2.531v-.229c.382-.085.562-.115.562-.573v-2.8c0-.428-.158-.5-.562-.562v-.229H105.5v3.62c0,.295.085.5.5.543v.232Zm-1.238-6.585a.779.779,0,0,1,.816.742.826.826,0,0,1-1.642,0A.785.785,0,0,1,104.762,42.867Z" transform="translate(-16.362 -42.867)"/>
        <path id="path1665" d="M109.224,49.39h-2.815v-.229c.338-.057.573-.1.573-.573v-2.8c0-.477-.254-.524-.573-.562V45h2v.753h.022a1.871,1.871,0,0,1,1.386-.867.778.778,0,0,1,.878.745.622.622,0,0,1-.676.638c-.614,0-.6-.562-.944-.562-.158,0-.625.21-.625.906v1.8c0,.581.128.723.772.753Z" transform="translate(-16.271 -42.805)"/>
        <path id="path1667" d="M112.247,47.207c0-1.086.052-2.029.837-2.029.646,0,.827.562.827,2.029,0,1.211-.085,2.019-.816,2.019C112.247,49.226,112.247,48.236,112.247,47.207Zm-1.558,0a2.388,2.388,0,1,0,2.392-2.324A2.288,2.288,0,0,0,110.69,47.207Z" transform="translate(-16.138 -42.805)"/>
        <path id="path1669" d="M121.012,49.39h-2.488V49.16a.469.469,0,0,0,.5-.543v-2.3c0-.267-.011-.791-.581-.791a1.2,1.2,0,0,0-.878.554V48.62c0,.218.033.5.518.543v.229h-2.55v-.229c.382-.065.562-.1.562-.573v-2.8c0-.428-.136-.5-.562-.562V45h2.021v.687h.022a1.75,1.75,0,0,1,1.5-.8,1.3,1.3,0,0,1,1.418,1.345v2.392c0,.229,0,.524.518.543Z" transform="translate(-15.988 -42.805)"/>
        <path id="path1671" d="M129.377,49.39h-2.52V49.16c.518-.019.518-.314.518-.543V46.313c0-.295,0-.791-.573-.791a1.212,1.212,0,0,0-.889.554V48.62c0,.306.1.516.5.543v.229h-2.477v-.229c.507-.03.507-.325.507-.543v-2.3c0-.306,0-.791-.581-.791a1.161,1.161,0,0,0-.878.554v2.545c0,.295.074.5.486.543v.229h-2.54v-.229c.349-.057.581-.1.581-.573v-2.8c0-.5-.275-.524-.581-.562V45h2.021v.687h.022a1.767,1.767,0,0,1,1.5-.8,1.35,1.35,0,0,1,1.386.829,1.966,1.966,0,0,1,1.566-.829,1.3,1.3,0,0,1,1.419,1.345v2.392c0,.237,0,.535.529.543v.221Z" transform="translate(-15.821 -42.805)"/>
        <path id="path1673" d="M130.586,46.7c0-1.315.36-1.525.753-1.525a.559.559,0,0,1,.573.447,5.264,5.264,0,0,1,.1,1.077ZM133.1,48.2a1.61,1.61,0,0,1-1.2.638c-1.007,0-1.238-.971-1.271-1.781H133.3a2,2,0,0,0-2.01-2.171,2.157,2.157,0,0,0-2.182,2.3,2.116,2.116,0,0,0,2.149,2.335,2.375,2.375,0,0,0,2.095-1.192Z" transform="translate(-15.567 -42.805)"/>
        <path id="path1675" d="M138.858,49.39H136.37V49.16a.469.469,0,0,0,.5-.543v-2.3c0-.267-.011-.791-.581-.791a1.2,1.2,0,0,0-.878.554V48.62c0,.218.033.5.518.543v.229h-2.55v-.229c.382-.065.562-.1.562-.573v-2.8c0-.428-.136-.5-.562-.562V45H135.4v.687h.022a1.75,1.75,0,0,1,1.5-.8,1.3,1.3,0,0,1,1.419,1.345v2.392c0,.229,0,.524.518.543Z" transform="translate(-15.435 -42.805)"/>
        <path id="path1677" d="M141.628,45.46h-1v2.867c0,.153-.011.543.412.543.308,0,.488-.295.6-.5l.265.1a1.691,1.691,0,0,1-1.558,1.067c-1.143,0-1.187-.8-1.2-1V45.455h-.551V45.2a8.637,8.637,0,0,0,1.757-1.773h.265v1.609h1v.426Z" transform="translate(-15.273 -42.85)"/>
      </g>
      <g id="g1689" transform="translate(0 0)">
        <path id="path1681" d="M59.914,18.5c4.051.927,6.56,2.215,6.56,3.65,0,2.864-10.418,6.269-22.742,6.269s-21.885-3.4-21.885-6.269c0-1.435,2.507-2.722,6.558-3.65-5.791,1.05-9.5,2.744-9.5,4.916C18.9,27.212,29.821,32,43.774,32s25.647-4.793,25.647-8.582C69.421,21.249,65.708,19.555,59.914,18.5Z" transform="translate(-18.902 -7.16)" fill="#20aee5"/>
        <g id="g1685" transform="translate(16.138 23.996)">
          <path id="path1683" d="M43.289,31.622a59.033,59.033,0,0,1-8.734-.641l9.1,9.1a.318.318,0,0,0,.447,0l9.3-9.3a60.567,60.567,0,0,1-10.117.846Z" transform="translate(-34.554 -30.776)" fill="#009481"/>
        </g>
        <path id="path1687" d="M44.32,7.594a.318.318,0,0,0-.447,0L27.493,23.974c0,1.309,3.715,2.37,8.3,2.37a17.149,17.149,0,0,0,8.3-2.37,17.149,17.149,0,0,1,8.3-2.37,17.149,17.149,0,0,1,8.3,2.37H60.7Z" transform="translate(-18.635 -7.502)" fill="#009481"/>
      </g>
      <g id="g1703" transform="translate(56.174 14.129)">
        <path id="path1691" d="M88.545,23.3v1.931h-2.01V23.3ZM80.6,21.825v4.891h14V21.825ZM84.685,23.3v1.931H82.653V23.3Zm7.878,0v1.931H90.394V23.3Zm-.889,8.323v1.623H83.25V31.626Zm2.19-1.5h-12.7v4.583h3.4a19.113,19.113,0,0,1-6.9,3.391l1.118,1.953a22.7,22.7,0,0,0,5.889-3.042v3.432h2.305V35.221h.046a16.82,16.82,0,0,0,7.351,5.322l.982-1.787a23.13,23.13,0,0,1-2.4-1.129,21.758,21.758,0,0,0,2.42-2.158l-1.53-1.047v-4.3Zm-.434,4.583a20.5,20.5,0,0,1-2.305,1.809,10.755,10.755,0,0,1-2.147-1.809ZM73.706,38.571a30.142,30.142,0,0,0,6.348-2.3l-.136-1.83c-.524.185-1.028.371-2.032.679V30.68H79.39V28.645H77.885V24.25h2.032V22.2H73.706V24.25h1.918v4.4H73.957v2.035h1.667V35.8a15.581,15.581,0,0,1-2.237.494Zm6.208-11.034v1.7H95.144v-1.7Z" transform="translate(-73.387 -21.187)"/>
        <path id="path1693" d="M113.578,24.455a5.844,5.844,0,0,1-.387,1.664h-3.813c-.068-.472-.09-.595-.3-1.664Zm-8.789,0h1.849A9.644,9.644,0,0,1,107,26.119h-2.717v1.7h14.384v-1.7h-3.058c.2-.595.412-1.459.456-1.664h2.147V22.747h-5.775V21.206h-2.305v1.541h-5.341v1.708Zm-7.7,13.459a50.34,50.34,0,0,0,6.76-2.4l-.251-1.871c-.867.33-1.3.494-1.849.679V28.135h1.986V26.122h-1.986V21.553H99.516v4.566H96.96v2.013h2.556v6.9c-1.14.349-2.054.554-2.717.72Zm7.971-9.021V35.53h2.33c-.434,1.828-2.079,2.692-5,3.164l1.1,1.931c4.315-1.3,5.387-2.425,6.323-5.1h2.032v3.287c0,.7,0,1.563,1.713,1.563h2.878c1.781,0,2.079-.987,2.237-3.718l-2.1-.472a9.926,9.926,0,0,1-.229,1.994c-.093.226-.251.226-.731.226h-1c-.526,0-.526-.1-.526-.761V35.533h3.677V28.9h-12.7Zm10.546,1.56V31.5h-8.4V30.453Zm0,2.343v1.192h-8.4V32.8Z" transform="translate(-72.661 -21.206)"/>
        <g id="g1701" transform="translate(48.552 0.063)">
          <path id="path1695" d="M137.973,25.17a20.382,20.382,0,0,0,2.916,1.659l1.3-1.931a13.706,13.706,0,0,1-5.434-3.451l-1.871,1.211c.415.406.876.818,1.364,1.222-4.1,3.737-9.9,5.4-15.769,5.723l.595,2.035c1.118-.123,2.079-.245,3.287-.472v9.288h2.33v-.821h10.663v.821h2.33V29.008h-7.649v-.041a23.392,23.392,0,0,0,5.938-3.8Zm-.622,12.693H126.688V36.507h10.663Zm0-2.957H126.688V33.632h10.663Zm0-4.214v1.337H126.688V30.691Z" transform="translate(-120.479 -21.261)"/>
          <path id="path1697" d="M127.129,26.834h3.058c1.964,0,1.964-1.088,1.964-1.931V21.267h-2.33v3.1c0,.453-.273.535-.616.535h-2.376Z" transform="translate(-120.282 -21.267)"/>
          <path id="path1699" d="M127.806,22.511l-1.871-.987a11.238,11.238,0,0,1-5.456,3.617l1.394,1.686A12.731,12.731,0,0,0,127.806,22.511Z" transform="translate(-120.479 -21.259)"/>
        </g>
      </g>
    </g>
  </g>
</svg>
